<svg width="26" height="25" viewBox="0 0 26 25" fill="none" xmlns="http://www.w3.org/2000/svg">
<path fill-rule="evenodd" clip-rule="evenodd" d="M9.4137 4.67316C9.6929 4.08485 10.2952 3.67603 10.9912 3.67603H14.9797C15.6757 3.67603 16.277 4.08485 16.5572 4.67316C17.2383 4.67915 17.7697 4.71006 18.2444 4.89553C18.811 5.11716 19.3037 5.49382 19.6663 5.98241C20.0322 6.475 20.2047 7.10619 20.4401 7.97469L21.1799 10.6889L21.4591 11.5275L21.4831 11.5574C22.3815 12.7081 21.9537 14.4192 21.0982 17.8404C20.5537 20.0171 20.2825 21.105 19.4708 21.7392C18.6592 22.3724 17.5374 22.3724 15.2938 22.3724H10.6771C8.43351 22.3724 7.31173 22.3724 6.50006 21.7392C5.68839 21.105 5.41617 20.0171 4.87273 17.8404C4.01718 14.4192 3.58941 12.7081 4.48783 11.5574L4.51176 11.5275L4.79096 10.6889L5.53084 7.97469C5.76716 7.10619 5.93967 6.474 6.30462 5.98141C6.66731 5.49319 7.16006 5.11689 7.72654 4.89553C8.20118 4.71006 8.73166 4.67815 9.4137 4.67316ZM9.4157 6.17187C8.75559 6.17885 8.49035 6.20377 8.27098 6.28953C7.96582 6.40887 7.70043 6.61171 7.50518 6.87485C7.32968 7.11117 7.22598 7.44122 6.93681 8.50517L6.36844 10.5882C7.38552 10.4067 8.77553 10.4067 10.6761 10.4067H15.2938C17.1954 10.4067 18.5844 10.4067 19.6015 10.5862L19.0341 8.50318C18.7449 7.43923 18.6412 7.10918 18.4657 6.87285C18.2705 6.60972 18.0051 6.40687 17.6999 6.28753C17.4806 6.20178 17.2153 6.17685 16.5552 6.16987C16.4136 6.46786 16.1905 6.71961 15.9116 6.89593C15.6328 7.07224 15.3096 7.16589 14.9797 7.16601H10.9912C10.6614 7.16598 10.3383 7.07248 10.0595 6.89635C9.78064 6.72022 9.55742 6.46967 9.4157 6.17187Z" fill="black" fill-opacity="0.8"/>
<circle cx="16.9851" cy="6.09523" r="3.73927" fill="#FD5200"/>
</svg>
