<svg width="25" height="25" viewBox="0 0 25 25" fill="none" xmlns="http://www.w3.org/2000/svg">
<path fill-rule="evenodd" clip-rule="evenodd" d="M8.40195 5.35934C8.67994 4.77357 9.2796 4.36652 9.9726 4.36652H13.9439C14.6369 4.36652 15.2356 4.77357 15.5145 5.35934C16.1926 5.3653 16.7218 5.39608 17.1944 5.58074C17.7586 5.80142 18.2492 6.17645 18.6102 6.66292C18.9745 7.15338 19.1463 7.78183 19.3806 8.64659L20.1173 11.3491L20.3953 12.184L20.4191 12.2138C21.3136 13.3595 20.8877 15.0632 20.0359 18.4696C19.4938 20.6369 19.2237 21.7201 18.4156 22.3515C17.6074 22.982 16.4905 22.982 14.2566 22.982H9.65986C7.426 22.982 6.30907 22.982 5.50091 22.3515C4.69275 21.7201 4.42171 20.6369 3.88062 18.4696C3.02878 15.0632 2.60285 13.3595 3.49739 12.2138L3.52122 12.184L3.79921 11.3491L4.53588 8.64659C4.77118 7.78183 4.94294 7.15238 5.30632 6.66193C5.66744 6.17582 6.15806 5.80115 6.72209 5.58074C7.19467 5.39608 7.72285 5.36431 8.40195 5.35934ZM8.40393 6.85156C7.74668 6.85851 7.48259 6.88333 7.26417 6.96871C6.96033 7.08753 6.69609 7.2895 6.50168 7.5515C6.32694 7.7868 6.22369 8.11542 5.93577 9.17477L5.36986 11.2488C6.38254 11.0681 7.76654 11.0681 9.65886 11.0681H14.2566C16.15 11.0681 17.533 11.0681 18.5456 11.2468L17.9807 9.17278C17.6928 8.11344 17.5896 7.78481 17.4148 7.54951C17.2204 7.28752 16.9562 7.08555 16.6523 6.96673C16.4339 6.88134 16.1698 6.85652 15.5126 6.84957C15.3716 7.14627 15.1494 7.39694 14.8718 7.57249C14.5941 7.74804 14.2724 7.84128 13.9439 7.8414H9.9726C9.64421 7.84137 9.32257 7.74827 9.04493 7.57291C8.76729 7.39754 8.54504 7.14807 8.40393 6.85156Z" fill="white"/>
<ellipse cx="16.8013" cy="6.95088" rx="3.9713" ry="3.9713" fill="#FD5200"/>
</svg>
