<svg width="40" height="41" viewBox="0 0 40 41" fill="none" xmlns="http://www.w3.org/2000/svg">
<rect x="0.506592" y="1.45471" width="39" height="39" rx="19.5" stroke="white"/>
<mask id="mask0_33_850" style="mask-type:luminance" maskUnits="userSpaceOnUse" x="8" y="8" width="25" height="25">
<path d="M8.00659 8.95471H32.0066V32.9547H8.00659V8.95471Z" fill="white"/>
</mask>
<g mask="url(#mask0_33_850)">
<path fill-rule="evenodd" clip-rule="evenodd" d="M8.00659 21.0217C8.00659 26.9887 12.3396 31.9487 18.0066 32.9547V24.2877H15.0066V20.9547H18.0066V18.2877C18.0066 15.2877 19.9396 13.6217 22.6736 13.6217C23.5396 13.6217 24.4736 13.7547 25.3396 13.8877V16.9547H23.8066C22.3396 16.9547 22.0066 17.6877 22.0066 18.6217V20.9547H25.2066L24.6736 24.2877H22.0066V32.9547C27.6736 31.9487 32.0066 26.9887 32.0066 21.0217C32.0066 14.3847 26.6066 8.95471 20.0066 8.95471C13.4066 8.95471 8.00659 14.3847 8.00659 21.0217Z" fill="white"/>
</g>
</svg>
