<svg width="41" height="41" viewBox="0 0 41 41" fill="none" xmlns="http://www.w3.org/2000/svg">
<rect x="0.510742" y="0.897949" width="39" height="39" rx="19.5" stroke="black" stroke-opacity="0.8"/>
<mask id="mask0_33_397" style="mask-type:luminance" maskUnits="userSpaceOnUse" x="8" y="8" width="25" height="25">
<path d="M8.01074 8.39795H32.0107V32.3979H8.01074V8.39795Z" fill="white"/>
</mask>
<g mask="url(#mask0_33_397)">
<path fill-rule="evenodd" clip-rule="evenodd" d="M8.01074 20.4649C8.01074 26.4319 12.3437 31.3919 18.0107 32.3979V23.7309H15.0107V20.3979H18.0107V17.7309C18.0107 14.7309 19.9437 13.0649 22.6777 13.0649C23.5437 13.0649 24.4777 13.1979 25.3437 13.3309V16.3979H23.8107C22.3437 16.3979 22.0107 17.1309 22.0107 18.0649V20.3979H25.2107L24.6777 23.7309H22.0107V32.3979C27.6777 31.3919 32.0107 26.4319 32.0107 20.4649C32.0107 13.8279 26.6107 8.39795 20.0107 8.39795C13.4107 8.39795 8.01074 13.8279 8.01074 20.4649Z" fill="black"/>
</g>
</svg>
