<svg width="40" height="41" viewBox="0 0 40 41" fill="none" xmlns="http://www.w3.org/2000/svg">
<rect x="0.506409" y="1.45477" width="39" height="39" rx="19.5" stroke="white"/>
<path d="M15.8031 10.9396H24.2031C27.4031 10.9396 30.003 13.5396 30.003 16.7396V25.1396C30.003 26.6779 29.392 28.1531 28.3043 29.2409C27.2166 30.3286 25.7413 30.9396 24.2031 30.9396H15.8031C12.6031 30.9396 10.0031 28.3396 10.0031 25.1396V16.7396C10.0031 15.2014 10.6141 13.7261 11.7018 12.6384C12.7895 11.5507 14.2648 10.9396 15.8031 10.9396ZM15.6031 12.9396C14.6483 12.9396 13.7326 13.3189 13.0575 13.9941C12.3823 14.6692 12.0031 15.5849 12.0031 16.5396V25.3396C12.0031 27.3296 13.6131 28.9396 15.6031 28.9396H24.403C25.3578 28.9396 26.2735 28.5604 26.9486 27.8852C27.6238 27.2101 28.003 26.2944 28.003 25.3396V16.5396C28.003 14.5496 26.393 12.9396 24.403 12.9396H15.6031ZM25.253 14.4396C25.5846 14.4396 25.9025 14.5713 26.1369 14.8058C26.3714 15.0402 26.503 15.3581 26.503 15.6896C26.503 16.0212 26.3714 16.3391 26.1369 16.5735C25.9025 16.8079 25.5846 16.9396 25.253 16.9396C24.9215 16.9396 24.6036 16.8079 24.3692 16.5735C24.1347 16.3391 24.003 16.0212 24.003 15.6896C24.003 15.3581 24.1347 15.0402 24.3692 14.8058C24.6036 14.5713 24.9215 14.4396 25.253 14.4396ZM20.0031 15.9396C21.3291 15.9396 22.6009 16.4664 23.5386 17.4041C24.4763 18.3418 25.003 19.6136 25.003 20.9396C25.003 22.2657 24.4763 23.5375 23.5386 24.4752C22.6009 25.4129 21.3291 25.9396 20.0031 25.9396C18.677 25.9396 17.4052 25.4129 16.4675 24.4752C15.5298 23.5375 15.0031 22.2657 15.0031 20.9396C15.0031 19.6136 15.5298 18.3418 16.4675 17.4041C17.4052 16.4664 18.677 15.9396 20.0031 15.9396ZM20.0031 17.9396C19.2074 17.9396 18.4443 18.2557 17.8817 18.8183C17.3191 19.3809 17.0031 20.144 17.0031 20.9396C17.0031 21.7353 17.3191 22.4983 17.8817 23.061C18.4443 23.6236 19.2074 23.9396 20.0031 23.9396C20.7987 23.9396 21.5618 23.6236 22.1244 23.061C22.687 22.4983 23.003 21.7353 23.003 20.9396C23.003 20.144 22.687 19.3809 22.1244 18.8183C21.5618 18.2557 20.7987 17.9396 20.0031 17.9396Z" fill="white"/>
</svg>
