<svg width="41" height="41" viewBox="0 0 41 41" fill="none" xmlns="http://www.w3.org/2000/svg">
<rect x="0.510742" y="0.897949" width="39" height="39" rx="19.5" stroke="black" stroke-opacity="0.8"/>
<path d="M15.8034 10.4547H24.2034C27.4034 10.4547 30.0034 13.0547 30.0034 16.2547V24.6547C30.0034 26.193 29.3923 27.6682 28.3046 28.7559C27.2169 29.8436 25.7417 30.4547 24.2034 30.4547H15.8034C12.6034 30.4547 10.0034 27.8547 10.0034 24.6547V16.2547C10.0034 14.7165 10.6145 13.2412 11.7022 12.1535C12.7899 11.0658 14.2652 10.4547 15.8034 10.4547ZM15.6034 12.4547C14.6486 12.4547 13.733 12.834 13.0578 13.5091C12.3827 14.1843 12.0034 15.0999 12.0034 16.0547V24.8547C12.0034 26.8447 13.6134 28.4547 15.6034 28.4547H24.4034C25.3582 28.4547 26.2739 28.0754 26.949 27.4003C27.6241 26.7252 28.0034 25.8095 28.0034 24.8547V16.0547C28.0034 14.0647 26.3934 12.4547 24.4034 12.4547H15.6034ZM25.2534 13.9547C25.5849 13.9547 25.9029 14.0864 26.1373 14.3208C26.3717 14.5552 26.5034 14.8732 26.5034 15.2047C26.5034 15.5362 26.3717 15.8542 26.1373 16.0886C25.9029 16.323 25.5849 16.4547 25.2534 16.4547C24.9219 16.4547 24.604 16.323 24.3695 16.0886C24.1351 15.8542 24.0034 15.5362 24.0034 15.2047C24.0034 14.8732 24.1351 14.5552 24.3695 14.3208C24.604 14.0864 24.9219 13.9547 25.2534 13.9547ZM20.0034 15.4547C21.3295 15.4547 22.6013 15.9815 23.5389 16.9192C24.4766 17.8569 25.0034 19.1286 25.0034 20.4547C25.0034 21.7808 24.4766 23.0526 23.5389 23.9902C22.6013 24.9279 21.3295 25.4547 20.0034 25.4547C18.6773 25.4547 17.4056 24.9279 16.4679 23.9902C15.5302 23.0526 15.0034 21.7808 15.0034 20.4547C15.0034 19.1286 15.5302 17.8569 16.4679 16.9192C17.4056 15.9815 18.6773 15.4547 20.0034 15.4547ZM20.0034 17.4547C19.2078 17.4547 18.4447 17.7708 17.8821 18.3334C17.3195 18.896 17.0034 19.6591 17.0034 20.4547C17.0034 21.2504 17.3195 22.0134 17.8821 22.576C18.4447 23.1386 19.2078 23.4547 20.0034 23.4547C20.7991 23.4547 21.5621 23.1386 22.1247 22.576C22.6873 22.0134 23.0034 21.2504 23.0034 20.4547C23.0034 19.6591 22.6873 18.896 22.1247 18.3334C21.5621 17.7708 20.7991 17.4547 20.0034 17.4547Z" fill="black"/>
</svg>
