<svg width="40" height="41" viewBox="0 0 40 41" fill="none" xmlns="http://www.w3.org/2000/svg">
<rect x="0.506592" y="1.45471" width="39" height="39" rx="19.5" stroke="white"/>
<path d="M17.0269 30.4796C17.9869 30.7696 18.9569 30.9396 19.9869 30.9396C22.639 30.9396 25.1826 29.886 27.0579 28.0106C28.9333 26.1353 29.9869 23.5917 29.9869 20.9396C29.9869 19.6264 29.7282 18.326 29.2257 17.1127C28.7231 15.8995 27.9865 14.7971 27.0579 13.8685C26.1294 12.9399 25.027 12.2033 23.8137 11.7008C22.6005 11.1982 21.3001 10.9396 19.9869 10.9396C18.6737 10.9396 17.3733 11.1982 16.16 11.7008C14.9468 12.2033 13.8444 12.9399 12.9158 13.8685C11.0404 15.7439 9.98688 18.2874 9.98688 20.9396C9.98688 25.1896 12.6569 28.8396 16.4269 30.2796C16.3369 29.4996 16.2469 28.2096 16.4269 27.3196L17.5769 22.3796C17.5769 22.3796 17.2869 21.7996 17.2869 20.8796C17.2869 19.4996 18.1469 18.4696 19.1269 18.4696C19.9869 18.4696 20.3869 19.0996 20.3869 19.9096C20.3869 20.7696 19.8169 21.9996 19.5269 23.1796C19.3569 24.1596 20.0469 25.0196 21.0469 25.0196C22.8269 25.0196 24.2069 23.1196 24.2069 20.4396C24.2069 18.0396 22.4869 16.3996 20.0169 16.3996C17.1969 16.3996 15.5369 18.4996 15.5369 20.7096C15.5369 21.5696 15.8169 22.4396 16.2769 23.0096C16.3669 23.0696 16.3669 23.1496 16.3369 23.2996L16.0469 24.3896C16.0469 24.5596 15.9369 24.6196 15.7669 24.4996C14.4869 23.9396 13.7469 22.1196 13.7469 20.6496C13.7469 17.4896 15.9869 14.6196 20.3069 14.6196C23.7469 14.6196 26.4269 17.0896 26.4269 20.3696C26.4269 23.8096 24.2969 26.5696 21.2469 26.5696C20.2769 26.5696 19.3269 26.0496 18.9869 25.4396L18.3169 27.8096C18.0869 28.6696 17.4569 29.8196 17.0269 30.5096V30.4796Z" fill="white"/>
</svg>
