<svg width="41" height="41" viewBox="0 0 41 41" fill="none" xmlns="http://www.w3.org/2000/svg">
<rect x="0.510742" y="0.897949" width="39" height="39" rx="19.5" stroke="black" stroke-opacity="0.8"/>
<path d="M17.0312 29.9947C17.9912 30.2847 18.9612 30.4547 19.9912 30.4547C22.6434 30.4547 25.1869 29.4011 27.0623 27.5258C28.9376 25.6504 29.9912 23.1069 29.9912 20.4547C29.9912 19.1415 29.7326 17.8411 29.23 16.6279C28.7275 15.4146 27.9909 14.3122 27.0623 13.3836C26.1337 12.4551 25.0313 11.7185 23.818 11.2159C22.6048 10.7134 21.3044 10.4547 19.9912 10.4547C18.678 10.4547 17.3776 10.7134 16.1644 11.2159C14.9511 11.7185 13.8487 12.4551 12.9201 13.3836C11.0448 15.259 9.99121 17.8025 9.99121 20.4547C9.99121 24.7047 12.6612 28.3547 16.4312 29.7947C16.3412 29.0147 16.2512 27.7247 16.4312 26.8347L17.5812 21.8947C17.5812 21.8947 17.2912 21.3147 17.2912 20.3947C17.2912 19.0147 18.1512 17.9847 19.1312 17.9847C19.9912 17.9847 20.3912 18.6147 20.3912 19.4247C20.3912 20.2847 19.8212 21.5147 19.5312 22.6947C19.3612 23.6747 20.0512 24.5347 21.0512 24.5347C22.8312 24.5347 24.2112 22.6347 24.2112 19.9547C24.2112 17.5547 22.4912 15.9147 20.0212 15.9147C17.2012 15.9147 15.5412 18.0147 15.5412 20.2247C15.5412 21.0847 15.8212 21.9547 16.2812 22.5247C16.3712 22.5847 16.3712 22.6647 16.3412 22.8147L16.0512 23.9047C16.0512 24.0747 15.9412 24.1347 15.7712 24.0147C14.4912 23.4547 13.7512 21.6347 13.7512 20.1647C13.7512 17.0047 15.9912 14.1347 20.3112 14.1347C23.7512 14.1347 26.4312 16.6047 26.4312 19.8847C26.4312 23.3247 24.3012 26.0847 21.2512 26.0847C20.2812 26.0847 19.3312 25.5647 18.9912 24.9547L18.3212 27.3247C18.0912 28.1847 17.4612 29.3347 17.0312 30.0247V29.9947Z" fill="black"/>
</svg>
