<svg width="41" height="41" viewBox="0 0 41 41" fill="none" xmlns="http://www.w3.org/2000/svg">
<rect x="0.987305" y="0.477295" width="40" height="40" rx="20" fill="#FD5200"/>
<path d="M22.5198 15.0149C22.5198 14.1749 21.8348 13.4849 20.9898 13.4849C20.1448 13.4849 19.4548 14.1749 19.4598 15.0149V18.9499H15.5248C14.6848 18.9499 13.9948 19.6349 13.9948 20.4799C13.9948 21.3199 14.6848 22.0099 15.5248 22.0099H19.4598V25.9399C19.4598 26.7799 20.1448 27.4699 20.9898 27.4699C21.8298 27.4699 22.5198 26.7849 22.5198 25.9399V22.0099H26.4498C27.2898 22.0099 27.9798 21.3249 27.9798 20.4799C27.9798 19.6399 27.2948 18.9499 26.4498 18.9499H22.5198V15.0149Z" fill="white"/>
</svg>
