<svg width="25" height="25" viewBox="0 0 25 25" fill="none" xmlns="http://www.w3.org/2000/svg">
<path fill-rule="evenodd" clip-rule="evenodd" d="M9.9268 6.80864C9.9268 5.6299 10.343 4.49944 11.0839 3.66594C11.8248 2.83245 12.8296 2.3642 13.8774 2.3642C14.9252 2.3642 15.93 2.83245 16.6709 3.66594C17.4118 4.49944 17.828 5.6299 17.828 6.80864C17.828 7.98738 17.4118 9.11784 16.6709 9.95134C15.93 10.7848 14.9252 11.2531 13.8774 11.2531C12.8296 11.2531 11.8248 10.7848 11.0839 9.95134C10.343 9.11784 9.9268 7.98738 9.9268 6.80864ZM9.9268 13.4753C8.61709 13.4753 7.36102 14.0606 6.43491 15.1025C5.50881 16.1444 4.98853 17.5574 4.98853 19.0309C4.98853 19.9149 5.30069 20.7628 5.85636 21.3879C6.41202 22.013 7.16566 22.3642 7.95149 22.3642H19.8033C20.5892 22.3642 21.3428 22.013 21.8985 21.3879C22.4541 20.7628 22.7663 19.9149 22.7663 19.0309C22.7663 17.5574 22.246 16.1444 21.3199 15.1025C20.3938 14.0606 19.1377 13.4753 17.828 13.4753H9.9268Z" fill="black" fill-opacity="0.8"/>
</svg>
