<svg width="29" height="25" viewBox="0 0 29 25" fill="none" xmlns="http://www.w3.org/2000/svg">
<path fill-rule="evenodd" clip-rule="evenodd" d="M13.8846 2.3642C12.4659 2.36432 11.0678 2.70369 9.80697 3.354C8.54613 4.00431 7.45909 4.9467 6.63654 6.10255C5.814 7.25839 5.2798 8.59418 5.07852 9.99846C4.87725 11.4027 5.01472 12.8348 5.47948 14.1751C5.94424 15.5155 6.7228 16.7252 7.75022 17.7035C8.77763 18.6818 10.0241 19.4002 11.3856 19.7988C12.7472 20.1973 14.1843 20.2646 15.5771 19.9948C16.9699 19.7251 18.278 19.1261 19.3922 18.2481L23.2147 22.0704C23.4121 22.261 23.6765 22.3665 23.951 22.3642C24.2254 22.3618 24.4879 22.2517 24.682 22.0576C24.8761 21.8636 24.9861 21.6011 24.9885 21.3266C24.9909 21.0522 24.8854 20.7878 24.6947 20.5904L20.8723 16.7681C21.9064 15.4563 22.5503 13.8798 22.7302 12.2191C22.9102 10.5584 22.619 8.88062 21.8899 7.37771C21.1608 5.87481 20.0233 4.60753 18.6075 3.72089C17.1918 2.83425 15.5551 2.36408 13.8846 2.3642ZM7.08114 11.2607C7.08114 9.45635 7.79793 7.72593 9.07382 6.45009C10.3497 5.17424 12.0802 4.45748 13.8846 4.45748C15.689 4.45748 17.4195 5.17424 18.6954 6.45009C19.9712 7.72593 20.688 9.45635 20.688 11.2607C20.688 13.065 19.9712 14.7954 18.6954 16.0712C17.4195 17.3471 15.689 18.0638 13.8846 18.0638C12.0802 18.0638 10.3497 17.3471 9.07382 16.0712C7.79793 14.7954 7.08114 13.065 7.08114 11.2607Z" fill="black" fill-opacity="0.8"/>
</svg>
