<svg width="28" height="25" viewBox="0 0 28 25" fill="none" xmlns="http://www.w3.org/2000/svg">
<path fill-rule="evenodd" clip-rule="evenodd" d="M12.8967 2.98079C11.4781 2.98091 10.08 3.32028 8.81923 3.97059C7.55844 4.6209 6.47144 5.56329 5.64893 6.71914C4.82642 7.87499 4.29224 9.21077 4.09097 10.615C3.8897 12.0193 4.02717 13.4514 4.49191 14.7917C4.95665 16.1321 5.73518 17.3418 6.76256 18.3201C7.78993 19.2984 9.03636 20.0168 10.3978 20.4153C11.7593 20.8139 13.1964 20.8812 14.5891 20.6114C15.9819 20.3416 17.2899 19.7427 18.4041 18.8646L22.2265 22.687C22.4239 22.8776 22.6882 22.9831 22.9627 22.9807C23.2371 22.9784 23.4996 22.8683 23.6937 22.6742C23.8877 22.4802 23.9978 22.2177 24.0002 21.9432C24.0026 21.6688 23.8971 21.4044 23.7064 21.207L19.8841 17.3847C20.9182 16.0728 21.562 14.4964 21.742 12.8357C21.9219 11.175 21.6307 9.49721 20.9016 7.99431C20.1726 6.4914 19.0351 5.22412 17.6195 4.33748C16.2038 3.45084 14.5671 2.98068 12.8967 2.98079ZM6.09351 11.8773C6.09351 10.0729 6.81027 8.34252 8.08611 7.06668C9.36196 5.79084 11.0924 5.07408 12.8967 5.07408C14.701 5.07408 16.4314 5.79084 17.7073 7.06668C18.9831 8.34252 19.6999 10.0729 19.6999 11.8773C19.6999 13.6816 18.9831 15.412 17.7073 16.6878C16.4314 17.9637 14.701 18.6804 12.8967 18.6804C11.0924 18.6804 9.36196 17.9637 8.08611 16.6878C6.81027 15.412 6.09351 13.6816 6.09351 11.8773Z" fill="white"/>
</svg>
